#!OML:ASF F:\VICON\USERDATA\INSTALL\rory3\rory3.ASF
:FULLY-SPECIFIED
:DEGREES
31
root 1.02417 17.8741 -17.1636 6.82906 -4.17102 0.527346
lowerback 6.01295 -0.171871 -2.15528
upperback -0.463717 -0.313187 1.89366
thorax -3.8323 -0.0919591 3.20204
lowerneck -16.6865 -4.29559 -10.3085
upperneck 15.9856 -4.67187 7.09102
head 8.11529 -2.16059 3.50493
rclavicle -6.85807e-015 1.47101e-014
rhumerus -30.4273 -4.83755 -83.008
rradius 34.1363
rwrist 3.6861
rhand -13.6161 12.9204
rfingers 7.12502
rthumb 12.4993 -16.6858
lclavicle -6.85807e-015 1.47101e-014
lhumerus -29.5181 7.36259 86.1275
lradius 29.0868
lwrist -4.38691
lhand -17.4018 25.8937
lfingers 7.12502
lthumb 8.84766 55.6883
rfemur -10.9259 6.43124 18.306
rtibia 20.2784
rfoot -10.5439 -9.16794
rtoes 5.00421
lfemur -9.09261 -2.96761 -19.8516
ltibia 17.0636
lfoot -10.6469 9.4395
ltoes 1.0699
32
root 1.02598 17.8727 -17.1589 6.82509 -4.09227 0.532756
lowerback 6.00083 -0.153327 -2.10358
upperback -0.412414 -0.286797 1.83876
thorax -3.7745 -0.081995 3.11269
lowerneck -17.0333 -4.33049 -10.1292
upperneck 16.1811 -4.72139 7.00686
head 8.23952 -2.1759 3.43937
rclavicle 1.71949e-014 1.51076e-014
rhumerus -30.3477 -5.1187 -83.002
rradius 33.983
rwrist 4.28981
rhand -13.702 13.0821
rfingers 7.12502
rthumb 12.4164 -16.5291
lclavicle 1.71949e-014 1.51076e-014
lhumerus -29.3815 7.1212 86.1304
lradius 29.1263
lwrist -4.372
lhand -17.4101 26.1026
lfingers 7.12502
lthumb 8.83962 55.8975
rfemur -10.9341 6.41589 18.3036
rtibia 20.3398
rfoot -10.6067 -9.31669
rtoes 4.7981
lfemur -8.97803 -2.98088 -19.8644
ltibia 16.9748
lfoot -10.7425 9.37299
ltoes 1.08296
33
root 1.02812 17.8659 -17.1538 6.68229 -4.12384 0.63503
lowerback 6.17644 -0.0921943 -2.18487
upperback -0.392055 -0.216637 1.7654
thorax -3.85717 -0.0451519 3.07738
lowerneck -17.1606 -4.38111 -9.9892
upperneck 16.3034 -4.80335 6.92543
head 8.30484 -2.21232 3.37797
rclavicle 6.85807e-015 3.97569e-016
rhumerus -30.4199 -5.27179 -83.0211
rradius 33.9301
rwrist 4.30392
rhand -13.712 13.337
rfingers 7.12502
rthumb 12.4068 -16.2749
lclavicle 6.85807e-015 3.97569e-016
lhumerus -29.3286 6.89772 86.1276
lradius 29.113
lwrist -4.62633
lhand -17.179 26.6525
lfingers 7.12502
lthumb 9.06265 56.4378
rfemur -10.7959 6.35334 18.201
rtibia 20.407
rfoot -10.6132 -9.31292
rtoes 4.13982
lfemur -8.85109 -3.1571 -19.9815
ltibia 16.938
lfoot -10.7198 9.51219
ltoes 1.32928
34
root 1.03116 17.8612 -17.1488 6.59659 -4.25794 0.74556
lowerback 6.29863 -0.021805 -2.32913
upperback -0.428538 -0.13676 1.73293
thorax -3.96937 -0.000529505 3.1189
lowerneck -16.9884 -4.38928 -9.97336
upperneck 16.2801 -4.83332 6.91556
head 8.26877 -2.22961 3.36951
rclavicle -1.78906e-015 -1.23246e-014
rhumerus -30.5871 -5.41779 -82.9955
rradius 33.9456
rwrist 4.19676
rhand -13.7988 13.8891
rfingers 7.12502
rthumb 12.3231 -15.7278
lclavicle -1.78906e-015 -1.23246e-014
lhumerus -29.3848 6.84816 86.1427
lradius 29.0804
lwrist -4.94676
lhand -16.8225 26.9026
lfingers 7.12502
lthumb 9.40664 56.6727
rfemur -10.748 6.38462 18.0674
rtibia 20.4617
rfoot -10.5758 -9.26792
rtoes 3.73483
lfemur -8.75496 -3.21868 -20.1261
ltibia 16.9189
lfoot -10.708 9.61252
ltoes 1.70255
35
root 1.03327 17.8642 -17.1439 6.67574 -4.38763 0.761953
lowerback 6.22317 -0.000766699 -2.40656
upperback -0.476031 -0.111339 1.77874
thorax -3.97796 0.0150034 3.20772
lowerneck -16.8703 -4.36802 -10.1228
upperneck 16.2389 -4.79258 6.99837
head 8.23647 -2.21356 3.42832
rclavicle 3.37934e-015 2.3059e-014
rhumerus -30.71 -5.33203 -82.9672
rradius 34.086
rwrist 4.27005
rhand -13.6665 13.931
rfingers 7.12502
rthumb 12.4507 -15.6782
lclavicle 3.37934e-015 2.3059e-014
lhumerus -29.4175 7.07293 86.1008
lradius 29.2428
lwrist -5.73927
lhand -15.3786 28.2344
lfingers 7.12502
lthumb 10.7996 57.9368
rfemur -10.8514 6.61175 18.0178
rtibia 20.4952
rfoot -10.6745 -9.33423
rtoes 3.86483
lfemur -8.73785 -3.08929 -20.182
ltibia 16.9271
lfoot -10.7499 9.63737
ltoes 1.20947
36
root 1.03442 17.8676 -17.1422 6.73885 -4.40201 0.65211
lowerback 6.15479 -0.043742 -2.31253
upperback -0.449302 -0.158096 1.84081
thorax -3.90824 -0.0110841 3.22284
lowerneck -16.926 -4.34095 -10.1771
upperneck 16.1791 -4.7334 7.00136
head 8.22226 -2.18717 3.44473
rclavicle -1.68967e-014 9.14409e-015
rhumerus -30.6754 -5.1648 -83.0266
rradius 34.1475
rwrist 4.26378
rhand -13.5199 13.8059
rfingers 7.12502
rthumb 12.592 -15.7946
lclavicle -1.68967e-014 9.14409e-015
lhumerus -29.2903 7.49692 85.9433
lradius 29.5404
lwrist -7.34626
lhand -12.5548 31.3344
lfingers 7.12502
lthumb 13.5223 60.8754
rfemur -10.8796 6.76287 18.1202
rtibia 20.4635
rfoot -10.7387 -9.40902
rtoes 4.07273
lfemur -8.73748 -2.97025 -20.094
ltibia 17.0324
lfoot -10.8549 9.62238
ltoes 0.121362
37
root 1.03653 17.8681 -17.1381 6.7945 -4.31548 0.683891
lowerback 6.08935 -0.0709195 -2.27022
upperback -0.408735 -0.192264 1.78867
thorax -3.82692 -0.0313321 3.14693
lowerneck -17.1797 -4.38129 -10.1093
upperneck 16.2397 -4.78791 7.02596
head 8.2911 -2.20177 3.4333
rclavicle -7.95139e-015 -2.42517e-014
rhumerus -30.5391 -5.36711 -83.0856
rradius 34.0397
rwrist 4.43517
rhand -13.5039 13.9028
rfingers 7.12502
rthumb 12.6074 -15.6967
lclavicle -7.95139e-015 -2.42517e-014
lhumerus -29.1567 7.33181 85.9662
lradius 29.542
lwrist -6.94261
lhand -13.025 31.0977
lfingers 7.12502
lthumb 13.0691 60.6683
rfemur -10.9069 6.69345 18.0781
rtibia 20.4422
rfoot -10.6742 -9.43272
rtoes 3.87889
lfemur -8.78179 -2.91153 -20.1355
ltibia 17.1138
lfoot -10.9426 9.52584
ltoes -0.183691
38
root 1.03904 17.8652 -17.1339 6.84797 -4.23721 0.568257
lowerback 6.09934 -0.0761968 -2.1089
upperback -0.437494 -0.188078 1.77427
thorax -3.86301 -0.0317895 3.04068
lowerneck -17.2946 -4.4048 -9.96465
upperneck 16.3017 -4.84246 6.99247
head 8.33246 -2.21996 3.39057
rclavicle 1.54058e-014 7.55382e-015
rhumerus -30.5418 -5.58525 -83.1193
rradius 34.1843
rwrist 5.16216
rhand -13.2744 12.8739
rfingers 7.12502
rthumb 12.8287 -16.7119
lclavicle 1.54058e-014 7.55382e-015
lhumerus -29.1699 6.80472 86.146
lradius 29.1756
lwrist -4.70687
lhand -16.6643 27.3924
lfingers 7.12502
lthumb 9.55923 57.1556
rfemur -10.9358 6.63962 18.2112
rtibia 20.4351
rfoot -10.5649 -9.45759
rtoes 3.86855
lfemur -8.91748 -2.85475 -19.9983
ltibia 17.1449
lfoot -10.8792 9.39672
ltoes -0.384958
39
root 1.04193 17.8607 -17.1283 6.87558 -4.30763 0.490334
lowerback 6.12274 -0.040946 -2.05578
upperback -0.520518 -0.136123 1.80123
thorax -3.96599 -0.00423969 3.03469
lowerneck -17.1236 -4.38441 -9.87447
upperneck 16.2836 -4.83337 6.88866
head 8.29034 -2.22353 3.34283
rclavicle -8.15017e-015 7.95139e-016
rhumerus -30.6573 -5.63902 -83.0861
rradius 33.8763
rwrist 4.48729
rhand -13.4858 13.6805
rfingers 7.12502
rthumb 12.6249 -15.9179
lclavicle -8.15017e-015 7.95139e-016
lhumerus -29.3503 6.5402 86.2686
lradius 29.1439
lwrist -3.79589
lhand -17.9988 26.1064
lfingers 7.12502
lthumb 8.27154 55.9244
rfemur -10.9335 6.71147 18.282
rtibia 20.4218
rfoot -10.5503 -9.45106
rtoes 3.78163
lfemur -9.09166 -2.82344 -19.907
ltibia 17.1817
lfoot -10.768 9.42446
ltoes 0.0214305
